<mxfile host="app.diagrams.net" modified="2024-10-10T14:27:39.439Z" agent="Mozilla/5.0 (Windows NT 10.0; Win64; x64) AppleWebKit/537.36 (KHTML, like Gecko) Chrome/129.0.0.0 Safari/537.36" etag="2v3JtOieV9-cUF_Dge36" version="24.6.4" type="device">
  <diagram id="C5RBs43oDa-KdzZeNtuy" name="Page-1">
    <mxGraphModel dx="1050" dy="557" grid="1" gridSize="10" guides="1" tooltips="1" connect="1" arrows="1" fold="1" page="1" pageScale="1" pageWidth="827" pageHeight="1169" math="0" shadow="0">
      <root>
        <mxCell id="WIyWlLk6GJQsqaUBKTNV-0" />
        <mxCell id="WIyWlLk6GJQsqaUBKTNV-1" parent="WIyWlLk6GJQsqaUBKTNV-0" />
        <mxCell id="jGUF6AIy-1xiq9vtTvTV-2" value="&lt;span style=&quot;color: rgba(0, 0, 0, 0); font-family: monospace; font-size: 0px; text-align: start; text-wrap: nowrap;&quot;&gt;%3CmxGraphModel%3E%3Croot%3E%3CmxCell%20id%3D%220%22%2F%3E%3CmxCell%20id%3D%221%22%20parent%3D%220%22%2F%3E%3CmxCell%20id%3D%222%22%20value%3D%22%26lt%3Bh1%20style%3D%26quot%3Bmargin-top%3A%200px%3B%26quot%3B%26gt%3BHeading%26lt%3B%2Fh1%26gt%3B%26lt%3Bp%26gt%3BLorem%20ipsum%20dolor%20sit%20amet%2C%20consectetur%20adipisicing%20elit%2C%20sed%20do%20eiusmod%20tempor%20incididunt%20ut%20labore%20et%20dolore%20magna%20aliqua.%26lt%3B%2Fp%26gt%3B%22%20style%3D%22text%3Bhtml%3D1%3BwhiteSpace%3Dwrap%3Boverflow%3Dhidden%3Brounded%3D0%3B%22%20vertex%3D%221%22%20parent%3D%221%22%3E%3CmxGeometry%20x%3D%22210%22%20y%3D%22230%22%20width%3D%22290%22%20height%3D%22120%22%20as%3D%22geometry%22%2F%3E%3C%2FmxCell%3E%3C%2Froot%3E%3C%2FmxGraphModel%3E&lt;/span&gt;" style="rounded=1;whiteSpace=wrap;html=1;fontSize=12;glass=0;strokeWidth=1;shadow=0;" vertex="1" parent="WIyWlLk6GJQsqaUBKTNV-1">
          <mxGeometry x="134" y="25" width="346" height="110" as="geometry" />
        </mxCell>
        <mxCell id="jGUF6AIy-1xiq9vtTvTV-3" value="&lt;h1 style=&quot;margin-top: 0px; font-size: 18px;&quot;&gt;Data Understanding and Processing&lt;/h1&gt;&lt;div&gt;&lt;ul&gt;&lt;li&gt;Loading the dataset using pandas&amp;nbsp;&lt;/li&gt;&lt;li&gt;Inspecting the data (shape, describe, info, isnull, duplicated, etc)&lt;/li&gt;&lt;li&gt;Handling missing values.&lt;/li&gt;&lt;/ul&gt;&lt;/div&gt;&lt;div&gt;&lt;br&gt;&lt;/div&gt;" style="text;html=1;whiteSpace=wrap;overflow=hidden;rounded=0;" vertex="1" parent="WIyWlLk6GJQsqaUBKTNV-1">
          <mxGeometry x="150" y="30" width="330" height="100" as="geometry" />
        </mxCell>
        <mxCell id="jGUF6AIy-1xiq9vtTvTV-5" value="" style="endArrow=classic;html=1;rounded=0;" edge="1" parent="WIyWlLk6GJQsqaUBKTNV-1">
          <mxGeometry width="50" height="50" relative="1" as="geometry">
            <mxPoint x="306.5" y="135" as="sourcePoint" />
            <mxPoint x="307" y="180" as="targetPoint" />
            <Array as="points">
              <mxPoint x="306.5" y="165" />
            </Array>
          </mxGeometry>
        </mxCell>
        <mxCell id="jGUF6AIy-1xiq9vtTvTV-6" value="&lt;span style=&quot;color: rgba(0, 0, 0, 0); font-family: monospace; font-size: 0px; text-align: start; text-wrap: nowrap;&quot;&gt;%3CmxGraphModel%3E%3Croot%3E%3CmxCell%20id%3D%220%22%2F%3E%3CmxCell%20id%3D%221%22%20parent%3D%220%22%2F%3E%3CmxCell%20id%3D%222%22%20value%3D%22%26lt%3Bh1%20style%3D%26quot%3Bmargin-top%3A%200px%3B%26quot%3B%26gt%3BHeading%26lt%3B%2Fh1%26gt%3B%26lt%3Bp%26gt%3BLorem%20ipsum%20dolor%20sit%20amet%2C%20consectetur%20adipisicing%20elit%2C%20sed%20do%20eiusmod%20tempor%20incididunt%20ut%20labore%20et%20dolore%20magna%20aliqua.%26lt%3B%2Fp%26gt%3B%22%20style%3D%22text%3Bhtml%3D1%3BwhiteSpace%3Dwrap%3Boverflow%3Dhidden%3Brounded%3D0%3B%22%20vertex%3D%221%22%20parent%3D%221%22%3E%3CmxGeometry%20x%3D%22210%22%20y%3D%22230%22%20width%3D%22290%22%20height%3D%22120%22%20as%3D%22geometry%22%2F%3E%3C%2FmxCell%3E%3C%2Froot%3E%3C%2FmxGraphModel%3E&lt;/span&gt;" style="rounded=1;whiteSpace=wrap;html=1;fontSize=12;glass=0;strokeWidth=1;shadow=0;" vertex="1" parent="WIyWlLk6GJQsqaUBKTNV-1">
          <mxGeometry x="134" y="183" width="346" height="110" as="geometry" />
        </mxCell>
        <mxCell id="jGUF6AIy-1xiq9vtTvTV-7" value="&lt;h1 style=&quot;margin-top: 0px; font-size: 18px;&quot;&gt;Exploratory Data Analysis (EDA)&lt;/h1&gt;&lt;div&gt;&lt;ul&gt;&lt;li&gt;Generate Descriptive statistics (mean, median, mode)&lt;/li&gt;&lt;li&gt;Visualize feature distributions and target variables.&lt;/li&gt;&lt;li&gt;Analyze relationship between target variables.&lt;/li&gt;&lt;/ul&gt;&lt;/div&gt;&lt;div&gt;&lt;br&gt;&lt;/div&gt;" style="text;html=1;whiteSpace=wrap;overflow=hidden;rounded=0;" vertex="1" parent="WIyWlLk6GJQsqaUBKTNV-1">
          <mxGeometry x="142" y="188" width="330" height="100" as="geometry" />
        </mxCell>
        <mxCell id="jGUF6AIy-1xiq9vtTvTV-8" value="&lt;span style=&quot;color: rgba(0, 0, 0, 0); font-family: monospace; font-size: 0px; text-align: start; text-wrap: nowrap;&quot;&gt;%3CmxGraphModel%3E%3Croot%3E%3CmxCell%20id%3D%220%22%2F%3E%3CmxCell%20id%3D%221%22%20parent%3D%220%22%2F%3E%3CmxCell%20id%3D%222%22%20value%3D%22%26lt%3Bh1%20style%3D%26quot%3Bmargin-top%3A%200px%3B%26quot%3B%26gt%3BHeading%26lt%3B%2Fh1%26gt%3B%26lt%3Bp%26gt%3BLorem%20ipsum%20dolor%20sit%20amet%2C%20consectetur%20adipisicing%20elit%2C%20sed%20do%20eiusmod%20tempor%20incididunt%20ut%20labore%20et%20dolore%20magna%20aliqua.%26lt%3B%2Fp%26gt%3B%22%20style%3D%22text%3Bhtml%3D1%3BwhiteSpace%3Dwrap%3Boverflow%3Dhidden%3Brounded%3D0%3B%22%20vertex%3D%221%22%20parent%3D%221%22%3E%3CmxGeometry%20x%3D%22210%22%20y%3D%22230%22%20width%3D%22290%22%20height%3D%22120%22%20as%3D%22geometry%22%2F%3E%3C%2FmxCell%3E%3C%2Froot%3E%3C%2FmxGraphModel%3E&lt;/span&gt;" style="rounded=1;whiteSpace=wrap;html=1;fontSize=12;glass=0;strokeWidth=1;shadow=0;" vertex="1" parent="WIyWlLk6GJQsqaUBKTNV-1">
          <mxGeometry x="134" y="340" width="346" height="110" as="geometry" />
        </mxCell>
        <mxCell id="jGUF6AIy-1xiq9vtTvTV-9" value="" style="endArrow=classic;html=1;rounded=0;" edge="1" parent="WIyWlLk6GJQsqaUBKTNV-1">
          <mxGeometry width="50" height="50" relative="1" as="geometry">
            <mxPoint x="306.5" y="293" as="sourcePoint" />
            <mxPoint x="307" y="338" as="targetPoint" />
            <Array as="points">
              <mxPoint x="306.5" y="323" />
            </Array>
          </mxGeometry>
        </mxCell>
        <mxCell id="jGUF6AIy-1xiq9vtTvTV-10" value="&lt;h1 style=&quot;margin-top: 0px; font-size: 18px;&quot;&gt;Hypothesis Testing&lt;/h1&gt;&lt;div&gt;&lt;ul&gt;&lt;li&gt;Used Two-Sampled T-test for hypothesis testing to check the significance of the features.&lt;/li&gt;&lt;/ul&gt;&lt;/div&gt;&lt;div&gt;&lt;br&gt;&lt;/div&gt;" style="text;html=1;whiteSpace=wrap;overflow=hidden;rounded=0;" vertex="1" parent="WIyWlLk6GJQsqaUBKTNV-1">
          <mxGeometry x="142" y="345" width="330" height="100" as="geometry" />
        </mxCell>
        <mxCell id="jGUF6AIy-1xiq9vtTvTV-11" value="" style="endArrow=classic;html=1;rounded=0;" edge="1" parent="WIyWlLk6GJQsqaUBKTNV-1">
          <mxGeometry width="50" height="50" relative="1" as="geometry">
            <mxPoint x="306.5" y="450" as="sourcePoint" />
            <mxPoint x="307" y="495" as="targetPoint" />
            <Array as="points">
              <mxPoint x="306.5" y="480" />
            </Array>
          </mxGeometry>
        </mxCell>
        <mxCell id="jGUF6AIy-1xiq9vtTvTV-12" value="&lt;span style=&quot;color: rgba(0, 0, 0, 0); font-family: monospace; font-size: 0px; text-align: start; text-wrap: nowrap;&quot;&gt;%3CmxGraphModel%3E%3Croot%3E%3CmxCell%20id%3D%220%22%2F%3E%3CmxCell%20id%3D%221%22%20parent%3D%220%22%2F%3E%3CmxCell%20id%3D%222%22%20value%3D%22%26lt%3Bh1%20style%3D%26quot%3Bmargin-top%3A%200px%3B%26quot%3B%26gt%3BHeading%26lt%3B%2Fh1%26gt%3B%26lt%3Bp%26gt%3BLorem%20ipsum%20dolor%20sit%20amet%2C%20consectetur%20adipisicing%20elit%2C%20sed%20do%20eiusmod%20tempor%20incididunt%20ut%20labore%20et%20dolore%20magna%20aliqua.%26lt%3B%2Fp%26gt%3B%22%20style%3D%22text%3Bhtml%3D1%3BwhiteSpace%3Dwrap%3Boverflow%3Dhidden%3Brounded%3D0%3B%22%20vertex%3D%221%22%20parent%3D%221%22%3E%3CmxGeometry%20x%3D%22210%22%20y%3D%22230%22%20width%3D%22290%22%20height%3D%22120%22%20as%3D%22geometry%22%2F%3E%3C%2FmxCell%3E%3C%2Froot%3E%3C%2FmxGraphModel%3E&lt;/span&gt;" style="rounded=1;whiteSpace=wrap;html=1;fontSize=12;glass=0;strokeWidth=1;shadow=0;" vertex="1" parent="WIyWlLk6GJQsqaUBKTNV-1">
          <mxGeometry x="134" y="500" width="346" height="110" as="geometry" />
        </mxCell>
        <mxCell id="jGUF6AIy-1xiq9vtTvTV-13" value="&lt;h1 style=&quot;margin-top: 0px; font-size: 18px;&quot;&gt;Feature Engineering &amp;amp; Selection&lt;/h1&gt;&lt;div&gt;&lt;ul&gt;&lt;li&gt;Select the Features using correlation.&lt;/li&gt;&lt;/ul&gt;&lt;/div&gt;&lt;div&gt;&lt;br&gt;&lt;/div&gt;" style="text;html=1;whiteSpace=wrap;overflow=hidden;rounded=0;" vertex="1" parent="WIyWlLk6GJQsqaUBKTNV-1">
          <mxGeometry x="142" y="505" width="330" height="100" as="geometry" />
        </mxCell>
        <mxCell id="jGUF6AIy-1xiq9vtTvTV-14" value="" style="endArrow=classic;html=1;rounded=0;" edge="1" parent="WIyWlLk6GJQsqaUBKTNV-1">
          <mxGeometry width="50" height="50" relative="1" as="geometry">
            <mxPoint x="306.5" y="610" as="sourcePoint" />
            <mxPoint x="307" y="655" as="targetPoint" />
            <Array as="points">
              <mxPoint x="306.5" y="640" />
            </Array>
          </mxGeometry>
        </mxCell>
        <mxCell id="jGUF6AIy-1xiq9vtTvTV-15" value="&lt;span style=&quot;color: rgba(0, 0, 0, 0); font-family: monospace; font-size: 0px; text-align: start; text-wrap: nowrap;&quot;&gt;%3CmxGraphModel%3E%3Croot%3E%3CmxCell%20id%3D%220%22%2F%3E%3CmxCell%20id%3D%221%22%20parent%3D%220%22%2F%3E%3CmxCell%20id%3D%222%22%20value%3D%22%26lt%3Bh1%20style%3D%26quot%3Bmargin-top%3A%200px%3B%26quot%3B%26gt%3BHeading%26lt%3B%2Fh1%26gt%3B%26lt%3Bp%26gt%3BLorem%20ipsum%20dolor%20sit%20amet%2C%20consectetur%20adipisicing%20elit%2C%20sed%20do%20eiusmod%20tempor%20incididunt%20ut%20labore%20et%20dolore%20magna%20aliqua.%26lt%3B%2Fp%26gt%3B%22%20style%3D%22text%3Bhtml%3D1%3BwhiteSpace%3Dwrap%3Boverflow%3Dhidden%3Brounded%3D0%3B%22%20vertex%3D%221%22%20parent%3D%221%22%3E%3CmxGeometry%20x%3D%22210%22%20y%3D%22230%22%20width%3D%22290%22%20height%3D%22120%22%20as%3D%22geometry%22%2F%3E%3C%2FmxCell%3E%3C%2Froot%3E%3C%2FmxGraphModel%3E&lt;/span&gt;" style="rounded=1;whiteSpace=wrap;html=1;fontSize=12;glass=0;strokeWidth=1;shadow=0;" vertex="1" parent="WIyWlLk6GJQsqaUBKTNV-1">
          <mxGeometry x="134" y="660" width="346" height="110" as="geometry" />
        </mxCell>
        <mxCell id="jGUF6AIy-1xiq9vtTvTV-16" value="&lt;h1 style=&quot;margin-top: 0px; font-size: 18px;&quot;&gt;Model Building &amp;amp; Evaluation&lt;/h1&gt;&lt;div&gt;&lt;ul&gt;&lt;li&gt;Applied Logistic Regression.&lt;/li&gt;&lt;li&gt;Used Classification Report to evaluate the model performance&lt;/li&gt;&lt;/ul&gt;&lt;/div&gt;&lt;div&gt;&lt;br&gt;&lt;/div&gt;" style="text;html=1;whiteSpace=wrap;overflow=hidden;rounded=0;" vertex="1" parent="WIyWlLk6GJQsqaUBKTNV-1">
          <mxGeometry x="142" y="665" width="330" height="100" as="geometry" />
        </mxCell>
      </root>
    </mxGraphModel>
  </diagram>
</mxfile>
